<?xml version="1.0" encoding="UTF-8"?>
<svg width="2441px" height="2666px" viewBox="0 0 2441 2666" version="1.1" xmlns="http://www.w3.org/2000/svg" xmlns:xlink="http://www.w3.org/1999/xlink">
    <!-- Generator: Sketch 51.3 (57544) - http://www.bohemiancoding.com/sketch -->
    <title>winter penguin</title>
    <desc>Created with Sketch.</desc>
    <defs></defs>
    <g id="Page-1" stroke="none" stroke-width="1" fill="none" fill-rule="evenodd">
        <g id="winter-penguin" transform="translate(0.000000, 14.000000)" fill-rule="nonzero">
            <g id="g3028">
                <path d="M1950.1,1315.8 C1950.1,1621.19 1539.76,1868.76 1033.6,1868.76 C527.44,1868.76 117.12,1621.19 117.12,1315.8 C117.12,1010.41 527.44,762.84 1033.6,762.84 C1539.76,762.84 1950.1,1010.41 1950.1,1315.8 Z" id="path9" fill="#FFFFFF"></path>
                <path d="M1389.344,869.6509 C1537.934,907.6429 1664.894,1071.5609 1700.264,1271.0209 C1710.647,1329.6619 1711.537,1418.9109 1702.0921,1471.6909 C1678.1161,1605.6409 1608.7641,1703.7909 1512.0421,1741.2209 C1472.4331,1756.5489 1413.9801,1760.6969 1371.7721,1751.1115 C1271.0821,1728.2365 1171.1221,1639.3115 1110.3021,1518.1915 C1080.7241,1459.3165 1051.4971,1363.0815 1051.7081,1325.5815 C1047.3018,1298.5345 1046.8097,1295.5115 1044.3722,1256.3705 C1040.6456,1242.4725 1046.2706,1168.6205 1057.9192,1118.3005 C1083.3722,1008.6405 1143.0672,924.8705 1223.0792,886.1305 C1263.6262,866.4895 1304.1262,858.3575 1346.4992,861.9425 C1360.633,863.1588 1374.695,865.9009 1389.344,869.6509 Z" id="path11" fill="#000000"></path>
                <path d="M441.53,560.93 C229.63,707.86 89.41,933.66 30.27,1224.14 C27.5512,1237.499 24.0825,1255.874 22.2075,1264.781 C20.3325,1273.6872 16.4887,1296.375 14.145,1315.312 C11.8012,1334.273 7.7934,1365.585 5.0044,1384.523 C-1.5581,1429.007 -1.605,1591.363 5.0044,1631.723 C25.2074,1755.213 47.1214,1845.383 93.6214,1996.483 C107.7544,2042.397 111.0354,2053.413 118.5124,2081.444 C120.5983,2089.2487 128.1686,2116.6 135.0124,2142.241 C179.0284,2307.191 547.976613,2651.43418 1014.48901,2651.43418 C1481.00141,2651.43418 1987.1394,2356.1269 1989.1314,2243.6759 C2025.1314,2064.5159 2035.4204,1730.2059 2025.1314,1460.9559 C2028.9283,1382.3469 2024.6392,1341.4759 2020.6314,1299.9359 C2006.4044,1153.1659 1978.5614,1065.0659 1921.0224,950.2059 C1875.4364,859.2449 1818.0624,780.7959 1742.6624,705.5859 C1658.3344,621.4449 1576.5824,563.0159 1466.9224,508.9259 C1333.3024,443.0199 1206.1324,409.5509 1050.9024,399.4259 C1023.3634,397.6447 995.9184,397.1525 968.4964,397.5978 C776.59,400.7072 589.7,458.176 441.53,560.93 Z M835.62,886.128 C915.542,924.8 975.07,1008.638 1000.41,1117.928 C1017.613,1203.686 1011.66,1325.188 1004.8163,1345.718 C995.6288,1415.632 955.8323,1515.918 911.4183,1581.198 C850.8563,1670.237 765.8283,1734.038 684.7583,1751.118 C612.4303,1766.376 544.5583,1751.4461 486.2683,1707.548 C398.5183,1641.431 350.0683,1523.278 350.0283,1376.118 C350.0049,1137.148 489.5283,915.548 669.0083,869.658 C683.6563,865.908 698.0943,863.1658 712.2033,861.9471 C754.575,858.3541 795.075,866.4869 835.62,886.128 Z" id="path13" fill="#000000"></path>
                <path d="M1035.169,2333.43 C1213.929,2363.266 1285.41611,2389.45078 1463.53611,2534.81478 C1556.77011,2610.86978 1847.947,2352.611 1849.307,2303.04 C1852.6585,2170.38 1865.619,1651.41 1876.049,1434.75 C1879.26,1368.141 1879.4475,1341.047 1876.049,1305.84 C1864.002,1181.48 1840.213,1095.56 1791.44,998.22 C1752.838,921.134 1704.463,854.69 1640.57,790.94 C1569.109,719.643 1499.85,670.14 1406.92,624.32 C1293.72,568.492 1054.26,531.672 1054.26,531.672 C1054.2,531.63 1002.778,1800.23 1035.169,2333.43 Z" id="path15" fill="#333333"></path>
                <path d="M1411.5,1750.7 C1329.961,1733.497 1244.39,1669.395 1183.48,1579.84 C1138.808,1514.192 1098.871,1413.43 1089.636,1343.12 C1082.7453,1322.472 1076.652,1200.2 1093.925,1113.95 C1119.425,1004.03 1179.542,919.54 1259.905,880.63 C1314.28,854.333 1368.285,848.966 1427.245,864.06 C1844.125,954.552 1858.405,1838.03 1411.495,1750.7 L1411.5,1750.7 Z" id="path17" fill="#FFFFFF"></path>
                <path d="M853.5,1344 C853.5,1444.97 778.336,1526.84 685.59,1526.84 C592.871,1526.84 517.68,1444.973 517.68,1344 C517.68,1243.027 592.868,1161.16 685.59,1161.16 C778.332,1161.16 853.5,1243.027 853.5,1344 Z" id="path19" fill="#000000"></path>
                <path d="M814.2,1272.4 C814.2,1316.65 781.27,1352.509 740.63,1352.509 C700.013,1352.509 667.06,1316.65 667.06,1272.4 C667.06,1228.15 700.013,1192.291 740.63,1192.291 C781.271,1192.291 814.2,1228.15 814.2,1272.4 Z" id="path21" fill="#FFFFFF"></path>
                <path d="M1551.7,1340.3 C1551.7,1441.27 1476.536,1523.14 1383.79,1523.14 C1291.071,1523.14 1215.88,1441.273 1215.88,1340.3 C1215.88,1239.327 1291.068,1157.46 1383.79,1157.46 C1476.532,1157.46 1551.7,1239.327 1551.7,1340.3 Z" id="path23" fill="#000000"></path>
                <path d="M1515.2,1267.5 C1515.2,1311.75 1482.27,1347.633 1441.63,1347.633 C1401.013,1347.633 1368.06,1311.75 1368.06,1267.5 C1368.06,1223.273 1401.013,1187.391 1441.63,1187.391 C1482.271,1187.391 1515.2,1223.274 1515.2,1267.5 Z" id="path25" fill="#FFFFFF"></path>
                <path d="M925.9,510.45 C1062.19,556.622 1155.33,433.434 1211.32,284.96 C1267.312,136.46 961.05,23.94 899.41,0.69 C1116.84,171.46 1113.86,198.32 983.246,323.87 C868.826,433.84 863.476,489.29 925.894,510.46 L925.9,510.45 Z" id="path27" fill="#000000"></path>
                <path d="M960.1,1728.9 L946.178,1743.712 C918.475,1773.056 858.826,1793.071 767.068,1803.618 C666.308,1815.22 538.178,1808.9384 476.768,1789.438 C446.416,1779.8051 438.19,1781.4458 430.924,1798.9301 C408.026,1854.1491 455.908,1958.6601 568.474,2099.2301 C639.865,2188.3861 745.994,2295.5701 812.414,2345.5801 C838.266,2365.0571 869.789,2380.4321 899.18,2387.8851 C923.086,2393.9554 1064.7,2392.7601 1098.14,2386.2445 C1109.296,2384.0648 1130.062,2380.1273 1144.242,2377.3616 C1221.328,2362.4786 1286.292,2325.1426 1400.112,2230.5716 C1502.912,2145.1416 1628.982,2004.4916 1662.662,1937.6216 C1687.295,1888.7306 1697.467,1815.0416 1682.678,1792.4716 C1674.1936,1779.5336 1670.631,1779.3236 1638.1,1789.6826 C1606.553,1799.7136 1499.05,1809.9326 1426.2,1809.9326 C1396.036,1809.9326 1347.356,1807.1201 1317.9,1803.6044 C1232.142,1793.4094 1182.81,1775.8314 1153.88,1745.1044 L1138.692,1728.8854 L960.1,1728.9 Z M996.967,1761.314 C1019.303,1761.314 1031.819,1790.4 1023.17,1822.486 C1008.358,1877.517 972.475,1904.142 950.608,1876.322 C926.631,1845.853 960.686,1761.312 996.967,1761.312 L996.967,1761.314 Z M1081.811,1761.314 C1106.725,1761.314 1136.655,1808.705 1136.655,1848.08 C1136.655,1882.018 1110.874,1897.65 1086.499,1878.478 C1066.413,1862.681 1048.741,1815.923 1053.452,1790.822 C1056.6395,1773.76 1068.64,1761.314 1081.811,1761.314 Z" id="path31" fill="#EECC00"></path>
            </g>
            <g id="winter-hat">
                <g id="g3037" transform="translate(0.000000, 0.593700)">
                    <path d="M1517,164.75 C1846.39,-41.13 2341.91,779.98 2316.17,1311.85 C1773.07,436.46 1187.57,370.67 1516.97,164.85 L1517,164.75 Z" id="path7" stroke="#FF6600" stroke-width="11.719" fill="#FF6600"></path>
                    <path d="M1077.4,0.9 C937.71,0.9 803.79,14.212 681.31,45.923 C558.83,77.611 447.69,127.837 354.15,201.173 C260.634,274.485 185,370.863 133.2,493.623 C81.403,616.363 53.231,765.503 53.231,945.243 C53.2076,954.1024 59.3482,962.118 68.84,965.587 C834.4,1083.687 1474.84,1069.997 2084.94,965.7042 C2094.7837,962.423 2101.299,954.3132 2101.323,945.2432 C2101.323,765.5032 2073.151,616.3932 2021.354,493.6232 C1969.557,370.8532 1893.924,274.5032 1800.404,201.1732 C1706.865,127.8372 1595.724,77.6132 1473.244,45.9232 C1350.764,14.2122 1217.044,0.9002 1077.364,0.9002 L1077.4,0.9 Z" id="path31" stroke="#FF6600" stroke-width="30.861" fill="#FF6600" stroke-linecap="round" stroke-linejoin="round"></path>
                    <path d="M1086.4,979.8 C1392.19,981.6984 1679.04,956.925 1957.71,909.276 C1966.1241,906.487 1971.468,899.8073 1971.491,892.05 C1971.491,738.21 1947.491,610.35 1903.171,505.28 C1858.851,400.21 1794.231,317.92 1714.171,255.16 C1634.132,192.418 1538.811,149.41 1433.971,122.27 C1329.161,95.153 1214.711,83.739 1095.161,83.739 C1092.161,83.739 1089.372,84.02025 1086.3954,84.04369 L1086.4,979.8 Z" id="path33" stroke="#D45400" stroke-width="26.413" fill="#D45400" stroke-linecap="round" stroke-linejoin="round"></path>
                    <path d="M78.28,798.1 C764.74,868.928 1425.88,870.147 2060.38,798.1 C2103.271,793.225 2138.31,832.858 2138.31,876.03 L2138.31,963.686 C2138.31,1006.858 2103.177,1035.967 2060.38,1041.616 C1399.68,1128.663 738.98,1109.913 78.28,1041.616 C35.342,1037.1629 0.35,1006.858 0.35,963.686 L0.35,876.03 C0.35,832.858 35.319,793.671 78.28,798.1 Z" id="path35" fill="#FFFFFF"></path>
                    <path d="M2440.3,1329 C2440.3,1404.305 2380.323,1465.36 2306.38,1465.36 C2232.411,1465.36 2172.43,1404.305 2172.43,1329 C2172.43,1253.672 2232.406,1192.62 2306.38,1192.62 C2380.325,1192.62 2440.3,1253.675 2440.3,1329 Z" id="path37" fill="#FF6600"></path>
                </g>
            </g>
        </g>
    </g>
</svg>