<?xml version="1.0" encoding="UTF-8"?>
<svg width="2732px" height="2989px" viewBox="0 0 2732 2989" version="1.1" xmlns="http://www.w3.org/2000/svg" xmlns:xlink="http://www.w3.org/1999/xlink">
    <!-- Generator: Sketch 51.3 (57544) - http://www.bohemiancoding.com/sketch -->
    <title>fancy penguin</title>
    <desc>Created with Sketch.</desc>
    <defs></defs>
    <g id="Page-1" stroke="none" stroke-width="1" fill="none" fill-rule="evenodd">
        <g id="fancy-penguin" transform="translate(27.000000, 25.000000)" fill-rule="nonzero">
            <path d="M1323.4,1195.8937 C1687.6,1194.0187 1937.04,1198.3077 2236.15,1126.1667 C2433.59,1078.5647 2643.24,1104.2287 2643.24,1104.2287 C2642.3259,1105.2834 2696.443,1093.5177 2668.81,1126.6117 C2599.599,1209.4637 2458.95,1335.8117 2210.61,1384.7317 C1608.06,1447.5207 1012.61,1448.3647 421.61,1411.1227 C277.28,1404.0915 173.52,1322.7167 73.7,1237.9427 C-14.472,1163.0597 -50.47,1050.6327 126.434,1102.5627 C300.134,1153.5397 959.214,1197.7897 1323.434,1195.8907 L1323.4,1195.8937 Z" id="path7" stroke="#191919" stroke-width="54.675" fill="#191919"></path>
            <g id="g3028" transform="translate(324.000000, 312.000000)">
                <path d="M1950.1,1315.8 C1950.1,1621.19 1539.76,1868.76 1033.6,1868.76 C527.44,1868.76 117.12,1621.19 117.12,1315.8 C117.12,1010.41 527.44,762.84 1033.6,762.84 C1539.76,762.84 1950.1,1010.41 1950.1,1315.8 Z" id="path9" fill="#FFFFFF"></path>
                <path d="M1389.344,869.6509 C1537.934,907.6429 1664.894,1071.5609 1700.264,1271.0209 C1710.647,1329.6619 1711.537,1418.9109 1702.0921,1471.6909 C1678.1161,1605.6409 1608.7641,1703.7909 1512.0421,1741.2209 C1472.4331,1756.5489 1413.9801,1760.6969 1371.7721,1751.1115 C1271.0821,1728.2365 1171.1221,1639.3115 1110.3021,1518.1915 C1080.7241,1459.3165 1051.4971,1363.0815 1051.7081,1325.5815 C1047.3018,1298.5345 1046.8097,1295.5115 1044.3722,1256.3705 C1040.6456,1242.4725 1046.2706,1168.6205 1057.9192,1118.3005 C1083.3722,1008.6405 1143.0672,924.8705 1223.0792,886.1305 C1263.6262,866.4895 1304.1262,858.3575 1346.4992,861.9425 C1360.633,863.1588 1374.695,865.9009 1389.344,869.6509 Z" id="path11" fill="#000000"></path>
                <path d="M441.53,560.93 C229.63,707.86 89.41,933.66 30.27,1224.14 C27.5512,1237.499 24.0825,1255.874 22.2075,1264.781 C20.3325,1273.6872 16.4887,1296.375 14.145,1315.312 C11.8012,1334.273 7.7934,1365.585 5.0044,1384.523 C-1.5581,1429.007 -1.605,1591.363 5.0044,1631.723 C25.2074,1755.213 47.1214,1845.383 93.6214,1996.483 C107.7544,2042.397 111.0354,2053.413 118.5124,2081.444 C120.5983,2089.2487 128.1686,2116.6 135.0124,2142.241 C179.0284,2307.191 547.976613,2651.43418 1014.48901,2651.43418 C1481.00141,2651.43418 1987.1394,2356.1269 1989.1314,2243.6759 C2025.1314,2064.5159 2035.4204,1730.2059 2025.1314,1460.9559 C2028.9283,1382.3469 2024.6392,1341.4759 2020.6314,1299.9359 C2006.4044,1153.1659 1978.5614,1065.0659 1921.0224,950.2059 C1875.4364,859.2449 1818.0624,780.7959 1742.6624,705.5859 C1658.3344,621.4449 1576.5824,563.0159 1466.9224,508.9259 C1333.3024,443.0199 1206.1324,409.5509 1050.9024,399.4259 C1023.3634,397.6447 995.9184,397.1525 968.4964,397.5978 C776.59,400.7072 589.7,458.176 441.53,560.93 Z M835.62,886.128 C915.542,924.8 975.07,1008.638 1000.41,1117.928 C1017.613,1203.686 1011.66,1325.188 1004.8163,1345.718 C995.6288,1415.632 955.8323,1515.918 911.4183,1581.198 C850.8563,1670.237 765.8283,1734.038 684.7583,1751.118 C612.4303,1766.376 544.5583,1751.4461 486.2683,1707.548 C398.5183,1641.431 350.0683,1523.278 350.0283,1376.118 C350.0049,1137.148 489.5283,915.548 669.0083,869.658 C683.6563,865.908 698.0943,863.1658 712.2033,861.9471 C754.575,858.3541 795.075,866.4869 835.62,886.128 Z" id="path13" fill="#000000"></path>
                <path d="M1035.169,2333.43 C1213.929,2363.266 1285.41611,2389.45078 1463.53611,2534.81478 C1556.77011,2610.86978 1847.947,2352.611 1849.307,2303.04 C1852.6585,2170.38 1865.619,1651.41 1876.049,1434.75 C1879.26,1368.141 1879.4475,1341.047 1876.049,1305.84 C1864.002,1181.48 1840.213,1095.56 1791.44,998.22 C1752.838,921.134 1704.463,854.69 1640.57,790.94 C1569.109,719.643 1499.85,670.14 1406.92,624.32 C1293.72,568.492 1054.26,531.672 1054.26,531.672 C1054.2,531.63 1002.778,1800.23 1035.169,2333.43 Z" id="path15" fill="#333333"></path>
                <path d="M1411.5,1750.7 C1329.961,1733.497 1244.39,1669.395 1183.48,1579.84 C1138.808,1514.192 1098.871,1413.43 1089.636,1343.12 C1082.7453,1322.472 1076.652,1200.2 1093.925,1113.95 C1119.425,1004.03 1179.542,919.54 1259.905,880.63 C1314.28,854.333 1368.285,848.966 1427.245,864.06 C1844.125,954.552 1858.405,1838.03 1411.495,1750.7 L1411.5,1750.7 Z" id="path17" fill="#FFFFFF"></path>
                <path d="M853.5,1344 C853.5,1444.97 778.336,1526.84 685.59,1526.84 C592.871,1526.84 517.68,1444.973 517.68,1344 C517.68,1243.027 592.868,1161.16 685.59,1161.16 C778.332,1161.16 853.5,1243.027 853.5,1344 Z" id="path19" fill="#000000"></path>
                <path d="M814.2,1272.4 C814.2,1316.65 781.27,1352.509 740.63,1352.509 C700.013,1352.509 667.06,1316.65 667.06,1272.4 C667.06,1228.15 700.013,1192.291 740.63,1192.291 C781.271,1192.291 814.2,1228.15 814.2,1272.4 Z" id="path21" fill="#FFFFFF"></path>
                <path d="M1551.7,1340.3 C1551.7,1441.27 1476.536,1523.14 1383.79,1523.14 C1291.071,1523.14 1215.88,1441.273 1215.88,1340.3 C1215.88,1239.327 1291.068,1157.46 1383.79,1157.46 C1476.532,1157.46 1551.7,1239.327 1551.7,1340.3 Z" id="path23" fill="#000000"></path>
                <path d="M1515.2,1267.5 C1515.2,1311.75 1482.27,1347.633 1441.63,1347.633 C1401.013,1347.633 1368.06,1311.75 1368.06,1267.5 C1368.06,1223.273 1401.013,1187.391 1441.63,1187.391 C1482.271,1187.391 1515.2,1223.274 1515.2,1267.5 Z" id="path25" fill="#FFFFFF"></path>
                <path d="M925.9,510.45 C1062.19,556.622 1155.33,433.434 1211.32,284.96 C1267.312,136.46 961.05,23.94 899.41,0.69 C1116.84,171.46 1113.86,198.32 983.246,323.87 C868.826,433.84 863.476,489.29 925.894,510.46 L925.9,510.45 Z" id="path27" fill="#000000"></path>
                <path d="M960.1,1728.9 L946.178,1743.712 C918.475,1773.056 858.826,1793.071 767.068,1803.618 C666.308,1815.22 538.178,1808.9384 476.768,1789.438 C446.416,1779.8051 438.19,1781.4458 430.924,1798.9301 C408.026,1854.1491 455.908,1958.6601 568.474,2099.2301 C639.865,2188.3861 745.994,2295.5701 812.414,2345.5801 C838.266,2365.0571 869.789,2380.4321 899.18,2387.8851 C923.086,2393.9554 1064.7,2392.7601 1098.14,2386.2445 C1109.296,2384.0648 1130.062,2380.1273 1144.242,2377.3616 C1221.328,2362.4786 1286.292,2325.1426 1400.112,2230.5716 C1502.912,2145.1416 1628.982,2004.4916 1662.662,1937.6216 C1687.295,1888.7306 1697.467,1815.0416 1682.678,1792.4716 C1674.1936,1779.5336 1670.631,1779.3236 1638.1,1789.6826 C1606.553,1799.7136 1499.05,1809.9326 1426.2,1809.9326 C1396.036,1809.9326 1347.356,1807.1201 1317.9,1803.6044 C1232.142,1793.4094 1182.81,1775.8314 1153.88,1745.1044 L1138.692,1728.8854 L960.1,1728.9 Z M996.967,1761.314 C1019.303,1761.314 1031.819,1790.4 1023.17,1822.486 C1008.358,1877.517 972.475,1904.142 950.608,1876.322 C926.631,1845.853 960.686,1761.312 996.967,1761.312 L996.967,1761.314 Z M1081.811,1761.314 C1106.725,1761.314 1136.655,1808.705 1136.655,1848.08 C1136.655,1882.018 1110.874,1897.65 1086.499,1878.478 C1066.413,1862.681 1048.741,1815.923 1053.452,1790.822 C1056.6395,1773.76 1068.64,1761.314 1081.811,1761.314 Z" id="path31" fill="#EECC00"></path>
            </g>
            <g id="highhat" transform="translate(6.000000, 0.000000)">
                <g id="g3037" transform="translate(0.000000, 0.593700)">
                    <path d="M2203.9,1097.2 C2196.9,924.45 2221.6,332.27 2202.6,149.51 C2181.7,-51.89 2049.5,4.97 1287.2,18.49 C525.02,32.039 418.38,-70.758 417.79,105.35 L414.3681,1123.45 C1034.2881,1022.81 1619.6681,1036.145 2203.8681,1097.224 L2203.9,1097.2 Z" id="path31" stroke="#191919" stroke-width="52.367" fill="#191919"></path>
                    <path d="M392.36,1139.7 L389.9225,1019.42 C982.2025,869.57 1573.2225,863.2 2224.6225,979.92 L2193.7315,1094.25 C1569.8915,1269.21 968.0315,1248.4 392.3315,1139.719 L392.36,1139.7 Z" id="path33" stroke="#000000" stroke-width="54.214" fill="#000000"></path>
                    <path d="M1332.1,1129.9 C1760.49,1120.4078 2119.79,1016.28 2396.8,919.24 C2488.558,887.107 2555.94,928.7791 2600.35,978.771 C2669.491,1077.959 2680.155,1105.641 2647.108,1101.301 C2636.046,1099.8479 2619.616,1091.223 2601.147,1080.207 C2376.777,1073.6913 2012.627,1249.707 1330.647,1251.677 C982.527,1252.6848 328.447,1156.38 103.047,1076.037 C57.977,1059.982 20.313,1097.599 7.141,1133.037 C-3.5,1133.2714 -22.484,925.617 167.781,974.177 C358.051,1022.739 903.691,1139.407 1332.081,1129.897 L1332.1,1129.9 Z" id="path35" stroke="#4C4C4C" stroke-width="65.893" fill="#4C4C4C" stroke-linecap="round"></path>
                    <path d="M1476.9,98.34 C1480.9078,117.91 1482.6656,138.278 1482.15,158.949 L1465.861,813.579 C1683.131,819.1337 1897.131,837.134 2110.721,862.657 C2108.3069,742.727 2130.362,320.407 2118.9476,193.307 C2106.7366,57.487 2016.5676,117.745 1476.8976,98.338 L1476.9,98.34 Z" id="path37" stroke="#4C4C4C" stroke-width="38.232" fill="#4C4C4C"></path>
                </g>
            </g>
        </g>
    </g>
</svg>