<?xml version="1.0" encoding="UTF-8"?>
<svg width="2221px" height="2962px" viewBox="0 0 2221 2962" version="1.1" xmlns="http://www.w3.org/2000/svg" xmlns:xlink="http://www.w3.org/1999/xlink">
    <!-- Generator: Sketch 51.3 (57544) - http://www.bohemiancoding.com/sketch -->
    <title>birthday penguin</title>
    <desc>Created with Sketch.</desc>
    <defs></defs>
    <g id="Page-1" stroke="none" stroke-width="1" fill="none" fill-rule="evenodd">
        <g id="birthday-penguin" fill-rule="nonzero">
            <g id="g3028" transform="translate(192.000000, 310.000000)">
                <path d="M1950.1,1315.8 C1950.1,1621.19 1539.76,1868.76 1033.6,1868.76 C527.44,1868.76 117.12,1621.19 117.12,1315.8 C117.12,1010.41 527.44,762.84 1033.6,762.84 C1539.76,762.84 1950.1,1010.41 1950.1,1315.8 Z" id="path9" fill="#FFFFFF"></path>
                <path d="M1389.344,869.6509 C1537.934,907.6429 1664.894,1071.5609 1700.264,1271.0209 C1710.647,1329.6619 1711.537,1418.9109 1702.0921,1471.6909 C1678.1161,1605.6409 1608.7641,1703.7909 1512.0421,1741.2209 C1472.4331,1756.5489 1413.9801,1760.6969 1371.7721,1751.1115 C1271.0821,1728.2365 1171.1221,1639.3115 1110.3021,1518.1915 C1080.7241,1459.3165 1051.4971,1363.0815 1051.7081,1325.5815 C1047.3018,1298.5345 1046.8097,1295.5115 1044.3722,1256.3705 C1040.6456,1242.4725 1046.2706,1168.6205 1057.9192,1118.3005 C1083.3722,1008.6405 1143.0672,924.8705 1223.0792,886.1305 C1263.6262,866.4895 1304.1262,858.3575 1346.4992,861.9425 C1360.633,863.1588 1374.695,865.9009 1389.344,869.6509 Z" id="path11" fill="#000000"></path>
                <path d="M441.53,560.93 C229.63,707.86 89.41,933.66 30.27,1224.14 C27.5512,1237.499 24.0825,1255.874 22.2075,1264.781 C20.3325,1273.6872 16.4887,1296.375 14.145,1315.312 C11.8012,1334.273 7.7934,1365.585 5.0044,1384.523 C-1.5581,1429.007 -1.605,1591.363 5.0044,1631.723 C25.2074,1755.213 47.1214,1845.383 93.6214,1996.483 C107.7544,2042.397 111.0354,2053.413 118.5124,2081.444 C120.5983,2089.2487 128.1686,2116.6 135.0124,2142.241 C179.0284,2307.191 547.976613,2651.43418 1014.48901,2651.43418 C1481.00141,2651.43418 1987.1394,2356.1269 1989.1314,2243.6759 C2025.1314,2064.5159 2035.4204,1730.2059 2025.1314,1460.9559 C2028.9283,1382.3469 2024.6392,1341.4759 2020.6314,1299.9359 C2006.4044,1153.1659 1978.5614,1065.0659 1921.0224,950.2059 C1875.4364,859.2449 1818.0624,780.7959 1742.6624,705.5859 C1658.3344,621.4449 1576.5824,563.0159 1466.9224,508.9259 C1333.3024,443.0199 1206.1324,409.5509 1050.9024,399.4259 C1023.3634,397.6447 995.9184,397.1525 968.4964,397.5978 C776.59,400.7072 589.7,458.176 441.53,560.93 Z M835.62,886.128 C915.542,924.8 975.07,1008.638 1000.41,1117.928 C1017.613,1203.686 1011.66,1325.188 1004.8163,1345.718 C995.6288,1415.632 955.8323,1515.918 911.4183,1581.198 C850.8563,1670.237 765.8283,1734.038 684.7583,1751.118 C612.4303,1766.376 544.5583,1751.4461 486.2683,1707.548 C398.5183,1641.431 350.0683,1523.278 350.0283,1376.118 C350.0049,1137.148 489.5283,915.548 669.0083,869.658 C683.6563,865.908 698.0943,863.1658 712.2033,861.9471 C754.575,858.3541 795.075,866.4869 835.62,886.128 Z" id="path13" fill="#000000"></path>
                <path d="M1035.169,2333.43 C1213.929,2363.266 1285.41611,2389.45078 1463.53611,2534.81478 C1556.77011,2610.86978 1847.947,2352.611 1849.307,2303.04 C1852.6585,2170.38 1865.619,1651.41 1876.049,1434.75 C1879.26,1368.141 1879.4475,1341.047 1876.049,1305.84 C1864.002,1181.48 1840.213,1095.56 1791.44,998.22 C1752.838,921.134 1704.463,854.69 1640.57,790.94 C1569.109,719.643 1499.85,670.14 1406.92,624.32 C1293.72,568.492 1054.26,531.672 1054.26,531.672 C1054.2,531.63 1002.778,1800.23 1035.169,2333.43 Z" id="path15" fill="#333333"></path>
                <path d="M1411.5,1750.7 C1329.961,1733.497 1244.39,1669.395 1183.48,1579.84 C1138.808,1514.192 1098.871,1413.43 1089.636,1343.12 C1082.7453,1322.472 1076.652,1200.2 1093.925,1113.95 C1119.425,1004.03 1179.542,919.54 1259.905,880.63 C1314.28,854.333 1368.285,848.966 1427.245,864.06 C1844.125,954.552 1858.405,1838.03 1411.495,1750.7 L1411.5,1750.7 Z" id="path17" fill="#FFFFFF"></path>
                <path d="M853.5,1344 C853.5,1444.97 778.336,1526.84 685.59,1526.84 C592.871,1526.84 517.68,1444.973 517.68,1344 C517.68,1243.027 592.868,1161.16 685.59,1161.16 C778.332,1161.16 853.5,1243.027 853.5,1344 Z" id="path19" fill="#000000"></path>
                <path d="M814.2,1272.4 C814.2,1316.65 781.27,1352.509 740.63,1352.509 C700.013,1352.509 667.06,1316.65 667.06,1272.4 C667.06,1228.15 700.013,1192.291 740.63,1192.291 C781.271,1192.291 814.2,1228.15 814.2,1272.4 Z" id="path21" fill="#FFFFFF"></path>
                <path d="M1551.7,1340.3 C1551.7,1441.27 1476.536,1523.14 1383.79,1523.14 C1291.071,1523.14 1215.88,1441.273 1215.88,1340.3 C1215.88,1239.327 1291.068,1157.46 1383.79,1157.46 C1476.532,1157.46 1551.7,1239.327 1551.7,1340.3 Z" id="path23" fill="#000000"></path>
                <path d="M1515.2,1267.5 C1515.2,1311.75 1482.27,1347.633 1441.63,1347.633 C1401.013,1347.633 1368.06,1311.75 1368.06,1267.5 C1368.06,1223.273 1401.013,1187.391 1441.63,1187.391 C1482.271,1187.391 1515.2,1223.274 1515.2,1267.5 Z" id="path25" fill="#FFFFFF"></path>
                <path d="M925.9,510.45 C1062.19,556.622 1155.33,433.434 1211.32,284.96 C1267.312,136.46 961.05,23.94 899.41,0.69 C1116.84,171.46 1113.86,198.32 983.246,323.87 C868.826,433.84 863.476,489.29 925.894,510.46 L925.9,510.45 Z" id="path27" fill="#000000"></path>
                <path d="M960.1,1728.9 L946.178,1743.712 C918.475,1773.056 858.826,1793.071 767.068,1803.618 C666.308,1815.22 538.178,1808.9384 476.768,1789.438 C446.416,1779.8051 438.19,1781.4458 430.924,1798.9301 C408.026,1854.1491 455.908,1958.6601 568.474,2099.2301 C639.865,2188.3861 745.994,2295.5701 812.414,2345.5801 C838.266,2365.0571 869.789,2380.4321 899.18,2387.8851 C923.086,2393.9554 1064.7,2392.7601 1098.14,2386.2445 C1109.296,2384.0648 1130.062,2380.1273 1144.242,2377.3616 C1221.328,2362.4786 1286.292,2325.1426 1400.112,2230.5716 C1502.912,2145.1416 1628.982,2004.4916 1662.662,1937.6216 C1687.295,1888.7306 1697.467,1815.0416 1682.678,1792.4716 C1674.1936,1779.5336 1670.631,1779.3236 1638.1,1789.6826 C1606.553,1799.7136 1499.05,1809.9326 1426.2,1809.9326 C1396.036,1809.9326 1347.356,1807.1201 1317.9,1803.6044 C1232.142,1793.4094 1182.81,1775.8314 1153.88,1745.1044 L1138.692,1728.8854 L960.1,1728.9 Z M996.967,1761.314 C1019.303,1761.314 1031.819,1790.4 1023.17,1822.486 C1008.358,1877.517 972.475,1904.142 950.608,1876.322 C926.631,1845.853 960.686,1761.312 996.967,1761.312 L996.967,1761.314 Z M1081.811,1761.314 C1106.725,1761.314 1136.655,1808.705 1136.655,1848.08 C1136.655,1882.018 1110.874,1897.65 1086.499,1878.478 C1066.413,1862.681 1048.741,1815.923 1053.452,1790.822 C1056.6395,1773.76 1068.64,1761.314 1081.811,1761.314 Z" id="path31" fill="#EECC00"></path>
            </g>
            <g id="birthday-hat">
                <path d="M394.22,1197.73 C680.02,1068.05 848.4,928.7 1021.6,739.68 L0.292932025,0.204641512 L394.22,1197.73 Z" id="path29" fill="#D40000"></path>
                <path d="M470.45,427.8 L470.45,1099.4 C658.87,1000.05 784.7,890.64 913.6,749.97 L470.45,427.8 Z" id="path31" fill="#FF0000"></path>
                <path d="M364.42,418 C464.64,482.453 449.1,491.477 418.279,382.188 C388.259,275.708 388.049,274.628 353.709,380.008 C318.479,488.148 304.399,477.25 407.149,416.34 C507.269,356.992 508.299,356.477 389.449,358.82 C267.459,361.234 274.279,345.461 368.619,417.11 C460.541,486.907 461.385,487.657 422.244,383.735 C382.094,277.095 400.404,278.215 355.944,383.406 C312.624,485.896 312.114,486.876 406.804,420.32 C503.974,352 508.454,368.477 386.624,361.844 C267.934,355.375 266.784,355.234 364.424,418 L364.42,418 Z" id="path33" fill="#FFFF00"></path>
                <path d="M337.42,725.69 C399.084,765.346 389.522,770.901 370.561,703.635 C352.069,638.08 351.952,637.424 330.811,702.2991 C309.131,768.8381 300.459,762.1351 363.717,724.6581 C425.334,688.1191 425.967,687.8141 352.819,689.2441 C277.725,690.7207 281.921,681.0175 339.999,725.1271 C396.577,768.0881 397.093,768.5571 372.999,704.5961 C348.272,638.9481 359.546,639.6511 332.194,704.38516 C305.522,767.47916 305.217,768.06516 363.483,727.09616 C423.295,685.04916 426.038,695.19816 351.085,691.09616 C278.03,687.13526 277.304,687.04146 337.421,725.69016 L337.42,725.69 Z" id="path35" fill="#FFFF00"></path>
                <path d="M116.606966,183.474098 C144.560122,201.450719 140.225533,203.968879 131.630246,173.476257 C123.247563,143.759255 123.194525,143.461881 113.611013,172.870675 C103.783165,203.033737 99.8520258,199.995173 128.527765,183.006323 C156.459616,166.442682 156.746563,166.304421 123.587549,166.95266 C89.5463846,167.622023 91.4484902,163.223427 117.776063,183.218927 C143.423664,202.693752 143.657574,202.906356 132.735426,173.911937 C121.52633,144.152777 126.636992,144.471457 114.237947,173.816315 C102.147155,202.41771 102.008894,202.683353 128.421689,184.11153 C155.535308,165.051035 156.778749,169.651719 122.801502,167.792225 C89.6846453,165.996693 89.3555393,165.954172 116.607419,183.47417 L116.606966,183.474098 Z" id="path35-copy" fill="#FFFF00"></path>
                <path d="M737.41,795.65 C832.121,856.541 817.426,865.095 788.293,761.806 C759.91,661.166 759.723,660.156 727.262,759.7435 C693.981,861.9335 680.668,851.6415 777.77,794.0795 C872.37,737.9895 873.37,737.4995 761,739.7295 C645.71,741.9995 652.18,727.0895 741.34,794.7995 C828.199,860.7765 828.996,861.4795 792.012,763.2525 C754.067,662.4725 771.364,663.5495 729.34,762.94781 C688.395,859.81481 687.926,860.72881 777.41,797.82281 C869.238,733.27581 873.457,748.83881 758.355,742.55681 C646.185,736.46301 645.085,736.32241 737.378,795.64281 L737.41,795.65 Z" id="path37" fill="#FFFF00"></path>
                <path d="M548.45,589.38 C621.13,636.114 609.856,642.653 587.497,563.388 C565.724,486.138 565.559,485.365 540.669,561.7942 C515.122,640.2392 504.903,632.3412 579.435,588.1612 C652.068,545.1062 652.818,544.7312 566.591,546.4422 C478.091,548.1766 483.06,536.7391 551.474,588.7232 C618.154,639.3482 618.763,639.8872 590.38,564.5122 C561.247,487.1452 574.536,487.9892 542.286,564.27783 C510.856,638.62183 510.481,639.32483 579.177,591.04383 C649.654,541.49683 652.888,553.42683 564.552,548.62183 C478.443,543.93433 477.622,543.84063 548.45,589.37983 L548.45,589.38 Z" id="path39" fill="#0000FF"></path>
                <path d="M217.193588,319.883727 C269.878313,353.760556 261.705946,358.500586 245.498217,301.042486 C229.715271,245.045031 229.595665,244.484694 211.553249,299.887162 C193.034583,356.750856 185.626971,351.025705 239.654185,319.000235 C292.30484,287.790262 292.848505,287.51843 230.343748,288.75871 C166.191324,290.015953 169.793283,281.725068 219.385644,319.407621 C267.721052,356.104982 268.162507,356.495696 247.588064,301.857403 C226.469956,245.775137 236.102968,246.386941 212.72539,301.687511 C189.942218,355.578447 189.670386,356.088042 239.467165,321.089814 C290.554965,285.17388 292.899247,293.821772 228.865705,290.338694 C166.446484,286.94079 165.851352,286.872868 217.193588,319.883603 L217.193588,319.883727 Z" id="path39-copy" fill="#0000FF" transform="translate(229.244892, 301.937479) rotate(21.000000) translate(-229.244892, -301.937479) "></path>
                <path d="M456.48,866.5 C507.152,899.078 499.3,903.648 483.714,848.406 C468.526,794.547 468.433,794.008 451.066,847.281 C433.254,901.961 426.128,896.453 478.089,865.656 C528.714,835.656 529.23,835.398 469.1359,836.57 C407.4479,837.7888 410.8939,829.82 458.6129,866.054 C505.0899,901.351 505.5109,901.726 485.7299,849.179 C465.4099,795.249 474.6679,795.835 452.1909,849.01493 C430.2769,900.83493 430.0189,901.32693 477.9019,867.67093 C527.0269,833.12393 529.2999,841.46793 467.7069,838.09293 C407.7069,834.83513 407.1209,834.76483 456.4799,866.49893 L456.48,866.5 Z" id="path41" fill="#0000FF"></path>
                <path d="M281.59,564.58 C321.27,590.08 315.106,593.642 302.918,550.4 C291.012,508.259 290.941,507.838 277.348,549.53281 C263.403,592.32981 257.848,588.01681 298.512,563.89981 C338.121,540.41581 338.543,540.22781 291.5042,541.14181 C243.2232,542.10275 245.9182,535.86841 283.2542,564.20381 C319.6292,591.83681 319.9572,592.14181 304.4882,551.00881 C288.5742,508.79781 295.8398,509.24281 278.2382,550.86819 C261.0822,591.43819 260.8942,591.83719 298.3712,565.47019 C336.8092,538.44719 338.5902,544.96219 290.379,542.33719 C243.41,539.78249 242.941,539.71219 281.5899,564.57919 L281.59,564.58 Z" id="path45" fill="#0000FF"></path>
                <path d="M494.17,1042.7 C544.842,1075.278 536.99,1079.848 521.404,1024.606 C506.216,970.747 506.099,970.208 488.756,1023.5044 C470.944,1078.1604 463.818,1072.6764 515.779,1041.8794 C566.404,1011.8564 566.92,1011.5984 506.8259,1012.7934 C445.1379,1013.9887 448.5839,1006.02 496.2789,1042.2544 C542.7559,1077.5514 543.2009,1077.9264 523.3959,1025.3794 C503.0989,971.4494 512.3569,972.0354 489.8799,1025.21534 C467.9659,1077.03534 467.7079,1077.52734 515.5909,1043.87134 C564.7159,1009.32434 566.9889,1017.66834 505.3959,1014.31634 C445.3729,1011.03514 444.7869,1010.96474 494.1689,1042.69934 L494.17,1042.7 Z" id="path47" fill="#FFFF00"></path>
            </g>
        </g>
    </g>
</svg>