<?xml version="1.0" encoding="UTF-8"?>
<svg width="2150px" height="2789px" viewBox="0 0 2150 2789" version="1.1" xmlns="http://www.w3.org/2000/svg" xmlns:xlink="http://www.w3.org/1999/xlink">
    <!-- Generator: Sketch 51.3 (57544) - http://www.bohemiancoding.com/sketch -->
    <title>crown penguin</title>
    <desc>Created with Sketch.</desc>
    <defs></defs>
    <g id="Page-1" stroke="none" stroke-width="1" fill="none" fill-rule="evenodd">
        <g id="crown-penguin" transform="translate(30.000000, 30.000000)" fill-rule="nonzero">
            <g id="g3028" transform="translate(0.000000, 504.000000)">
                <path d="M1950.1,918.8 C1950.1,1224.19 1539.76,1471.76 1033.6,1471.76 C527.44,1471.76 117.12,1224.19 117.12,918.8 C117.12,613.41 527.44,365.84 1033.6,365.84 C1539.76,365.84 1950.1,613.41 1950.1,918.8 Z" id="path9" fill="#FFFFFF"></path>
                <path d="M1389.344,472.6509 C1537.934,510.6429 1664.894,674.5609 1700.264,874.0209 C1710.647,932.6619 1711.537,1021.9109 1702.0921,1074.6909 C1678.1161,1208.6409 1608.7641,1306.7909 1512.0421,1344.2209 C1472.4331,1359.5489 1413.9801,1363.6969 1371.7721,1354.1115 C1271.0821,1331.2365 1171.1221,1242.3115 1110.3021,1121.1915 C1080.7241,1062.3165 1051.4971,966.0815 1051.7081,928.5815 C1047.3018,901.5345 1046.8097,898.5115 1044.3722,859.3705 C1040.6456,845.4725 1046.2706,771.6205 1057.9192,721.3005 C1083.3722,611.6405 1143.0672,527.8705 1223.0792,489.1305 C1263.6262,469.4895 1304.1262,461.3575 1346.4992,464.9425 C1360.633,466.1588 1374.695,468.9009 1389.344,472.6509 Z" id="path11" fill="#000000"></path>
                <path d="M441.53,163.93 C229.63,310.86 89.41,536.66 30.27,827.14 C27.5512,840.499 24.0825,858.874 22.2075,867.781 C20.3325,876.6872 16.4887,899.375 14.145,918.312 C11.8012,937.273 7.7934,968.585 5.0044,987.523 C-1.5581,1032.007 -1.605,1194.363 5.0044,1234.723 C25.2074,1358.213 47.1214,1448.383 93.6214,1599.483 C107.7544,1645.397 111.0354,1656.413 118.5124,1684.444 C120.5983,1692.2487 128.1686,1719.6 135.0124,1745.241 C179.0284,1910.191 547.976613,2254.43418 1014.48901,2254.43418 C1481.00141,2254.43418 1987.1394,1959.1269 1989.1314,1846.6759 C2025.1314,1667.5159 2035.4204,1333.2059 2025.1314,1063.9559 C2028.9283,985.3469 2024.6392,944.4759 2020.6314,902.9359 C2006.4044,756.1659 1978.5614,668.0659 1921.0224,553.2059 C1875.4364,462.2449 1818.0624,383.7959 1742.6624,308.5859 C1658.3344,224.4449 1576.5824,166.0159 1466.9224,111.9259 C1333.3024,46.0199 1206.1324,12.5509 1050.9024,2.4259 C1023.3634,0.6447 995.9184,0.1525 968.4964,0.5978 C776.59,3.7072 589.7,61.176 441.53,163.93 Z M835.62,489.128 C915.542,527.8 975.07,611.638 1000.41,720.928 C1017.613,806.686 1011.66,928.188 1004.8163,948.718 C995.6288,1018.632 955.8323,1118.918 911.4183,1184.198 C850.8563,1273.237 765.8283,1337.038 684.7583,1354.118 C612.4303,1369.376 544.5583,1354.4461 486.2683,1310.548 C398.5183,1244.431 350.0683,1126.278 350.0283,979.118 C350.0049,740.148 489.5283,518.548 669.0083,472.658 C683.6563,468.908 698.0943,466.1658 712.2033,464.9471 C754.575,461.3541 795.075,469.4869 835.62,489.128 Z" id="path13" fill="#000000"></path>
                <path d="M1035.169,1936.43 C1213.929,1966.266 1295.749,2006.766 1473.869,2152.13 C1567.103,2228.185 1847.947,1955.611 1849.307,1906.04 C1852.6585,1773.38 1865.619,1254.41 1876.049,1037.75 C1879.26,971.141 1879.4475,944.047 1876.049,908.84 C1864.002,784.48 1840.213,698.56 1791.44,601.22 C1752.838,524.134 1704.463,457.69 1640.57,393.94 C1569.109,322.643 1499.85,273.14 1406.92,227.32 C1293.72,171.492 1054.26,134.672 1054.26,134.672 C1054.2,134.63 1002.778,1403.23 1035.169,1936.43 Z" id="path15" fill="#333333"></path>
                <path d="M1411.5,1353.7 C1329.961,1336.497 1244.39,1272.395 1183.48,1182.84 C1138.808,1117.192 1098.871,1016.43 1089.636,946.12 C1082.7453,925.472 1076.652,803.2 1093.925,716.95 C1119.425,607.03 1179.542,522.54 1259.905,483.63 C1314.28,457.333 1368.285,451.966 1427.245,467.06 C1844.125,557.552 1858.405,1441.03 1411.495,1353.7 L1411.5,1353.7 Z" id="path17" fill="#FFFFFF"></path>
                <path d="M853.5,947 C853.5,1047.97 778.336,1129.84 685.59,1129.84 C592.871,1129.84 517.68,1047.973 517.68,947 C517.68,846.027 592.868,764.16 685.59,764.16 C778.332,764.16 853.5,846.027 853.5,947 Z" id="path19" fill="#000000"></path>
                <path d="M814.2,875.4 C814.2,919.65 781.27,955.509 740.63,955.509 C700.013,955.509 667.06,919.65 667.06,875.4 C667.06,831.15 700.013,795.291 740.63,795.291 C781.271,795.291 814.2,831.15 814.2,875.4 Z" id="path21" fill="#FFFFFF"></path>
                <path d="M1551.7,943.3 C1551.7,1044.27 1476.536,1126.14 1383.79,1126.14 C1291.071,1126.14 1215.88,1044.273 1215.88,943.3 C1215.88,842.327 1291.068,760.46 1383.79,760.46 C1476.532,760.46 1551.7,842.327 1551.7,943.3 Z" id="path23" fill="#000000"></path>
                <path d="M1515.2,870.5 C1515.2,914.75 1482.27,950.633 1441.63,950.633 C1401.013,950.633 1368.06,914.75 1368.06,870.5 C1368.06,826.273 1401.013,790.391 1441.63,790.391 C1482.271,790.391 1515.2,826.274 1515.2,870.5 Z" id="path25" fill="#FFFFFF"></path>
                <path d="M960.1,1331.9 L946.178,1346.712 C918.475,1376.056 858.826,1396.071 767.068,1406.618 C666.308,1418.22 538.178,1411.9384 476.768,1392.438 C446.416,1382.8051 438.19,1384.4458 430.924,1401.9301 C408.026,1457.1491 455.908,1561.6601 568.474,1702.2301 C639.865,1791.3861 745.994,1898.5701 812.414,1948.5801 C838.266,1968.0571 869.789,1983.4321 899.18,1990.8851 C923.086,1996.9554 1064.7,1995.7601 1098.14,1989.2445 C1109.296,1987.0648 1130.062,1983.1273 1144.242,1980.3616 C1221.328,1965.4786 1286.292,1928.1426 1400.112,1833.5716 C1502.912,1748.1416 1628.982,1607.4916 1662.662,1540.6216 C1687.295,1491.7306 1697.467,1418.0416 1682.678,1395.4716 C1674.1936,1382.5336 1670.631,1382.3236 1638.1,1392.6826 C1606.553,1402.7136 1499.05,1412.9326 1426.2,1412.9326 C1396.036,1412.9326 1347.356,1410.1201 1317.9,1406.6044 C1232.142,1396.4094 1182.81,1378.8314 1153.88,1348.1044 L1138.692,1331.8854 L960.1,1331.9 Z M996.967,1364.314 C1019.303,1364.314 1031.819,1393.4 1023.17,1425.486 C1008.358,1480.517 972.475,1507.142 950.608,1479.322 C926.631,1448.853 960.686,1364.312 996.967,1364.312 L996.967,1364.314 Z M1081.811,1364.314 C1106.725,1364.314 1136.655,1411.705 1136.655,1451.08 C1136.655,1485.018 1110.874,1500.65 1086.499,1481.478 C1066.413,1465.681 1048.741,1418.923 1053.452,1393.822 C1056.6395,1376.76 1068.64,1364.314 1081.811,1364.314 Z" id="path31" fill="#EECC00"></path>
            </g>
            <g id="crown" stroke-linecap="round" stroke-linejoin="round">
                <path d="M128.71,0.617 L317.41,501.057 L561.77,43.607 L736.4,556.277 L995.52,73.867 L1233.36,599.707 L1499.94,95.237 L1738.16,611.397 L2046.22,109.347 C2046.22,109.347 2154.22,775.277 2028.9,1061.497 C1416.3,1224.397 616.4,1180.397 25.3,951.197 C-66.59,760.947 128.71,0.617 128.71,0.617 Z" id="path29" stroke="#EBD400" stroke-width="60.559" fill="#EBD400"></path>
                <polygon id="path31" stroke="#CC0000" stroke-width="42.196" fill="#CC0000" points="184.14 788.52 315.76 666.36 437.92 797.98 306.27 920.14"></polygon>
                <polygon id="path33" stroke="#1E4A85" stroke-width="42.196" fill="#1E4A85" points="639 837.01 770.7 714.85 892.8 846.5 761.18 968.66"></polygon>
                <path d="M1024.7,288.12 L1223.59,750.68 L1499.92,299.77 L1738.14,776.98 L2021.85,304.15 C2021.85,304.15 2037.319,653.53 1965.577,993.31 C1455.247,1073.419 1278.697,1068.357 1028.567,1058.349 C1021.6763,631.079 1023.2701,609.709 1024.6998,288.119 L1024.7,288.12 Z" id="path35" stroke="#D4A800" stroke-width="60.559" fill="#D4A800"></path>
                <polygon id="path37" stroke="#4C9905" stroke-width="42.196" fill="#4C9905" points="1671 846.88 1802.65 724.72 1924.81 856.37 1793.16 978.53"></polygon>
                <polygon id="path39" stroke="#7F007F" stroke-width="42.196" fill="#7F007F" points="1166 877.74 1297.65 755.58 1419.78 887.23 1288.16 1009.39"></polygon>
            </g>
        </g>
    </g>
</svg>